<svg width="245" height="200" viewBox="0 0 245 200" xmlns="http://www.w3.org/2000/svg"><title>500</title><path d="M54.29 100.86c.428-.484.854-.97 1.28-1.452l.425.165-.415 2.295c1.846-1.39 1.882-4.042 4.277-4.69l-2.54 5.248.218.103 3.218-5.244.574.335c-.436 1.033-.87 2.067-1.483 3.518 1.798-1.353 1.828-3.595 3.854-4.66-.635 1.875-1.14 3.36-1.644 4.844l.398.17c1.002-1.983 2.005-3.965 3.12-6.167l1.383.41 1.997-1.34.33.348-1.94 5.627.35.18 3.777-4.53-1.41-.562 1.864-.79c.783 3.465 3.22 4.657 6.13 5.41.27 1.45.612 2.978.804 4.527.06.493-.195 1.082-.447 1.552-1.214 2.275-2.525 4.5-3.715 6.787-2.538 4.874-5.384 9.63-7.445 14.7-3.203 7.88-5.858 15.984-8.74 23.995-.07.2-.072.426-.17 1.055 2.065-1.645 3.158-3.607 3.907-5.612 2.706-7.24 6.36-14.12 8.087-21.74.38-1.676 1.745-3.11 2.54-4.713 2.023-4.07 3.98-8.175 5.963-12.266.144-.297.31-.583.572-1.077 3.267 4.586 5.335 9.866 9.793 13.353-2.353-3.897-4.867-7.708-7-11.723-1.326-2.496-2.012-5.326-3.118-7.95-.38-.902-1.07-1.725-1.778-2.42-.793-.78-1.85-1.29-2.633-2.076-.664-.664-1.1-1.554-1.44-2.51 1.81 1.47 3.276 3.337 5.95 3.458-3.226-2.588-5.44-5.86-7.01-9.87 1.743 2.15 3.174 4.28 4.968 6.038 2.35 2.304 3.674 4.885 3.788 8.192.037 1.066.582 2.155 1.05 3.16 2.677 5.764 5.71 11.32 10.082 16.012 3.73 4.002 7.348 8.13 11.328 11.87 3.502 3.292 7.798 5.443 12.5 6.64.62.156 1.29.11 1.686.14 0-.857.09-1.55-.016-2.21-.396-2.438-1.337-4.468-3.813-5.576-1.567-.702-3.003-1.712-4.45-2.657-.363-.237-.542-.756-.925-1.323.068-.02-.222.07-.828.257l.38-8.29.626-.04.664 1.745c.282-.226.557-.335.58-.482.63-4.245 1.346-8.484 1.76-12.752.098-1-.604-2.343-1.364-3.103-1.078-1.076-1.056-2.146-.758-3.375.17-.704.556-1.363.682-2.072.247-1.377.38-2.774.333-4.256-2.362.897-2.052 3.635-3.402 5.172l-.535-.27 1.74-4.66-.29-.3c-1.126.747-2.407 1.336-3.34 2.272-1.517 1.52-3.403 1.927-5.342 2.206-4.417.636-8.716-.04-12.912-1.455-.33-.112-.805-.463-.823-.73-.11-1.608-1.057-1.616-2.235-1.297-2.112.57-2.887-1.33-4.095-2.32-1.026-.84-1.782-2.007-2.692-3-1.744-1.902-2.834-4.135-3.56-6.597-.712-2.408-1.545-4.78-2.447-7.545l-.623 1.262.036-.032c-1.218-1.46-2.647-2.803-3.58-4.428-.616-1.068-.296-2.637-.784-3.822a99.96 99.96 0 0 0-3.853-8.248c-2.312-4.42-2.4-9.27-2.994-14.037-.376-3.023-.688-6.042.295-9.002.492-1.48 1.043-2.952 1.723-4.352 1.442-2.968 2.98-5.89 4.495-8.825.27-.52.612-1.003.92-1.504l.41.24c-.76 1.322-1.622 2.597-2.26 3.974-1.48 3.196-2.82 6.457-4.28 9.664-1.248 2.743-.632 5.494-.136 8.72 1.984-6.56 2.266-13.26 6.477-19.224.538 3.806 1.008 7.142 1.484 10.477.298 2.09.665 4.173.866 6.27.046.474-.42 1.035-.738 1.497-1.464 2.128-2.958 4.237-4.44 6.352l.435.416 2.655-1.552.23.294-2.792 2.99.293.395 3.14-1.896c.056.08.11.16.167.238-1.186 1.793-2.372 3.587-3.56 5.38l.316.278c.95-.713 1.897-1.427 2.846-2.14l.24.332c-.856 1.77-1.71 3.538-2.543 5.258l2.554.91c-1.04 1.984-.51 3.815.28 5.668.216.508.033 1.186.033 1.785l-.468.103c1.745 2.78 3.527 5.54 5.214 8.354.448.748.75 1.65.876 2.515.798 5.49 3.86 9.598 8.028 12.944.598.48 1.913.068 3.037.068 0-1.87.016-3.53-.022-5.186-.004-.2-.26-.478-.47-.575-3.59-1.68-4.393-5.57-1.71-8.444.245 1.073-1.623 2.07.18 3.473.415-1.465.777-2.733 1.138-4l.375.02V84.7c3.026-1.285 5.593-2.52 8.264-3.463 1.98-.698 4.075-1.212 6.16-1.45 2.166-.245 4.233-.396 5.613-2.387.18-.26.525-.402.88-.664 2 1.843 3.105 4.195 4.016 6.62.9 2.398 1.415 2.64 3.863 1.95 2.235-.633 4.545-1 7.068-1.537v-3.66c-3.61-.805-5.547-3.55-7.873-6.27 5.926.107 9.532-3.628 13.168-7.145 1.554-1.503 3.077-2.245 5.198-1.832.818.16 1.703-.013 2.514.163 1.106.237 2.17.663 3.253 1.008-.054.17-.11.34-.163.51h-7.918l-.13.306 2.824 1.313h-3.02l-.11.448c1.096.37 2.192.743 3.29 1.115l.056.497-7.354.482-.084.4c.684.256 1.35.63 2.057.743 2.563.414 5.097.252 7.614-.47 2.867-.82 5.722-.797 8.387.715.603.34 1.09.964 1.5 1.548.998 1.43 2.628 1.416 3.258-.212.467-1.21.558-2.57.784-3.87.16-.907.262-1.824.39-2.736l.628.007v7.532c-2.187.824-4.118 2.464-3.368 5.786-.78.152-1.305.253-1.83.354-.085-.167-.172-.333-.258-.5l1.777-1.063-1.41-1.267c.023-.176.112-.503.107-.83-.048-2.66-.656-3.763-3.24-4.263-1.945-.376-4.026-.08-6.046-.025-1.49.04-3.063.016-3.594 2.138.635-.17 1.176-.317 1.718-.464l.262.29c-.493.406-.93.943-1.495 1.184-.704.3-1.514.35-2.277.515-.697.153-1.392.318-2.24.513l.816 1.017-3.09.827c2.21 1.658 4.206 2.192 6.57 1.022l-2.083 1.63.097.425 2.724-.462c.142 1.92 1.51.246 2.153.692-.97 1.09-2.246 1.525-3.79.84-2.28-1.01-4.432-2.307-6.696-3.358-.378-.176-1.16.143-1.566.47-1.578 1.258-.23 4.572 1.25 5.67.853.634 1.765 1.233 2.466 2.013 1.27 1.414 2.99 1.364 4.485 1.164 2.353-.316 4.647-1.103 6.952-1.744.975-.27 1.914-.672 2.87-1.014l.204.5c-.674.336-1.335.704-2.027 1-.876.372-1.855.557-2.652 1.045-3.79 2.323-7.528 1.47-11.278-.048-.256-.103-.583-.212-.713-.42-1.33-2.136-3.71-1.987-5.708-2.66-1.65-.557-2.857.627-4.2 1.185-.695.29-1.26.89-1.62 1.156 0 1.046-.118 1.913.02 2.735.668 3.94-.07 7.776-.775 11.615-.2 1.09.898 2.616 2.72 3.09 3.578.93 7.154 1.193 10.538-.86.462-.28 1.145-.21 1.73-.27 1.133-.112 2.268-.2 3.69-.324 1.48 2.272 3.227 4.83 4.823 7.483.47.78.783 1.002 1.75 1.022 2.214.046 4.425.42 6.626.745.466.068.88.488 1.32.745l-.15.68c-1.373-.124-2.748-.344-4.123-.348-2.12-.006-4.23-.585-6.333.592-4.588 2.568-9.682 3.794-14.725 5.12-.682.18-1.344.432-2.016.65l.11.583 8.343-1.28-6.324 2.838.278.7 5.02-1.44-5.022 2.965.21.44c1.167-.486 2.308-1.05 3.508-1.43.86-.27 1.793-.325 2.7-.418 2.155-.22 4.348-.247 6.454-.688.85-.178 1.503-1.252 2.27-1.89.642-.536 1.318-1.03 2.074-1.415-.916 3.578-1.903 4.47-5.73 6.018-2.262.915-4.442 2.043-6.624 3.143-.883.447-2.037.882-2.443 1.65-1.23 2.33-2.12 4.82-.93 7.503.114.257.194.527.308.784.066.148.17.28.438.716 2.467-.274 5.1-.386 7.65-.898 2.57-.518 5.062-1.433 7.592-2.175l-.43 1.14c1.244-.302 2.413-.278 3.16-.827 1.868-1.376 3.654-2.907 5.257-4.583.87-.91 1.505-1.902 2.934-1.745l-.034-.02c-2.037 3.64-4.572 6.57-8.773 8.018-5.666 1.95-11.348 3.576-17.377 3.616-1.252.007-2.507-.28-3.853-.44v1.93c.435.428.863.685 1.05 1.062 1.463 2.95 2.813 5.96 4.33 8.883 1.693 3.268 3.66 6.4 5.243 9.718.82 1.72 1.066 3.714 1.628 5.793.753-.917 1.897-1.88 2.494-3.11 3.435-7.06 7.776-13.452 13.168-19.187 3.278-3.486 5.694-7.633 7.805-11.933 2.39-4.86 4.943-9.648 6.37-14.924.177-.65.728-1.2 1.106-1.797.21.11.42.223.63.335-.4.995-.718 2.032-1.213 2.976a34.072 34.072 0 0 0-3.575 11.18c-.527 3.774-2.914 6.766-3.983 10.3-1.102 3.647-2.21 7.3-3.545 10.866-3.12 8.33-5.776 16.865-10.61 24.47-.9 1.42-1.7 3.178-1.748 4.802-.075 2.648-1.15 4.732-2.48 6.825-1.615 2.54-3.197 5.1-4.8 7.645-.174.277-.402.52-.807 1.04l-.66-1.61c-.205.13-.574.24-.74.488-1.568 2.32-3.884 2.525-6.398 2.47-4.654-.104-9.312-.052-13.966-.138-.476-.01-.92-.577-1.423-.765-.297-.11-.71-.058-1.024.052-.583.203-1.13.722-1.696.727-7.118.052-14.236.02-21.354.043-16.685.05-33.372.126-50.058.177-9.327.028-18.655-.01-27.982.075-1.582.014-2.044-.45-1.937-1.986.13-1.883.03-3.782.03-6.053 1.76 1.037 3.76.698 4.702 2.688.22.464 1.2.57 1.914.876.1-.292.233-.69.365-1.08.134.028.3.03.313.075.077.267.026.643.19.8.398.377.856.774 1.36.917.26.074.95-.37.953-.59.01-.548-.086-1.352-.452-1.61-1.266-.89-2.652-1.618-4.02-2.36-1.718-.933-4.09-1.414-5.014-2.842-.88-1.362-.26-3.693-.293-5.597-.01-.605-.002-1.21-.002-1.937 1.617.19 3.066.593 4.477.486 5.454-.412 10.894-1.008 16.344-1.47.702-.06 1.434.258 2.15.402.14.182.277.363.414.545.32-1.116.745-2.216.884-3.353.035-.292-.886-1.05-1.28-.992-4.647.673-8.33-1.88-12.248-3.58-2.973-1.29-5.862-2.77-8.81-4.116-1.698-.775-2.327-1.984-1.734-4 .897 0 1.88-.01 2.866 0 1.855.02 3.75.304 5.554.017 2.888-.46 4.873.8 6.797 2.655 2.418 2.33 4.948 4.547 7.44 6.8.22.2.522.307 1.016.28-5.397-8.142-12.127-15.432-15.346-25.032.406.21.883.338 1.2.636 2.47 2.333 5.587 2.24 8.57 2.007 2.593-.202 4.884.02 7.29 1.168 3.885 1.855 7.965 3.3 11.97 4.9.4.16.854.186 1.8.38-.675-.586-.93-.925-1.27-1.083-3.38-1.576-5.626-4.28-7.74-7.254-2.403-3.38-5.435-6.338-7.616-9.84-1.587-2.548-2.448-5.628-3.19-8.582-.25-.995.877-2.326 1.348-3.514 1.888-4.768 5.622-7.99 9.277-11.332 2.175-1.99 3.82-4.59 6.104-6.418 2.856-2.286 5.072-5.003 7.243-7.876.92-1.217 2.468-2.08 3.895-2.76 1.49-.71 3.18-1.003 5.167-1.592l-1.666 3.906 2.297-1.493-.052.05zm14.103 89.672l14.746 1.18.06-.645-7.88-1.062c2.128-.14 3.87-.258 5.613-.374.005-.21.012-.42.018-.628-4.214-.48-8.425-.984-12.645-1.406-.504-.05-1.05.35-1.578.543.01.166.023.334.035.502 1.068.264 2.137.53 3.552.878-.846.163-1.34.223-1.804.378-.088.03-.047.437-.063.67l-10.182-.558-.03.426c6.123 2.166 12.49 2.827 18.96 2.997a14.956 14.956 0 0 0-3.474-1.49c-1.76-.517-3.55-.945-5.327-1.41zm-22.78-80.175c-.03.748-.176 1.512-.076 2.24.647 4.686 1.455 9.35 1.99 14.047.31 2.72.197 5.486.304 8.23.017.414.078 1.088.313 1.19 1.342.577 1.266 1.63 1.256 2.81-.023 2.97.05 5.942.147 8.91.012.37.406.73.622 1.093.336-.23.834-.384.985-.702a2048.081 2048.081 0 0 0 7.515-16.106c.135-.294.13-.65.19-.98a15.968 15.968 0 0 1-.307-.11l-6.057 10.68-.584-.25c2.852-6.09 4.222-12.547 4.893-19.105l1.694-.656-2.08-.724c-1.048 4.314-2.062 8.547-3.112 12.77-.3 1.216-.706 2.406-1.106 3.748-2.334-1.532-1.02-3.855-1.85-5.636-.19.847-.355 1.574-.52 2.302-.554-8.117-1.725-16.072-4.262-23.793.27-.257.66-.463.792-.777 1.015-2.44 1.98-4.9 2.96-7.352-2.716 2.055-3.592 4.94-3.708 8.17zm38.563 39.458c-.337.415-.595 1.05-1.026 1.205-1.582.57-3.222.982-4.84 1.452.03.137.06.275.088.413h6.846c.005-.202.01-.404.017-.607-1.336 0-2.673 0-4.008-.003l3.172-.958-.247-1.5h-4.605l4.783-1.225-.09-.417-4.01.578-.082-.45c1.29-.218 2.578-.434 3.867-.65-.005-.086-.01-.173-.017-.26H80.91l2.114-3.255-.384-.358c-.47.377-.978.715-1.405 1.136-1.428 1.408-2.648 3.103-4.267 4.23-7.605 5.29-14.994 10.772-21.52 17.447-4.57 4.675-9.83 8.68-14.812 12.948-.628.54-1.44.862-1.89 1.124l-.87 2c5.454 4.762 10.993 9.693 17.585 13.277-5.077-4.992-9.73-10.475-16.326-13.757 1.123-.71 2.217-1.31 3.207-2.047 4.812-3.58 9.708-7.06 14.35-10.848 3.513-2.866 6.62-6.22 10.038-9.21 2.694-2.356 5.682-4.376 8.36-6.75 1.858-1.644 3.656-3.046 6.305-2.96.92.032 1.855-.356 2.783-.553zM62.02 147.47l.255.27c3.76-1.488 7.43-3.287 11.3-4.376 3.946-1.108 8.088-1.517 12.232-2.25.08.538.164.972.21 1.41.325 3.12.43 6.28 1.013 9.35a145.72 145.72 0 0 0 3.08 13.044c1.618 5.622 3.3 11.246 5.374 16.71 1.642 4.326 3.914 8.414 5.916 12.603.554 1.16 1.212 2.206 2.297 2.054-.453-1.065-.982-2.197-1.417-3.365-.45-1.207-.69-2.503-1.23-3.662-1.616-3.456-3.76-6.728-4.916-10.322-2.18-6.774-4.12-13.66-5.586-20.62-1.28-6.08-1.782-12.326-2.595-18.504-.06-.46.29-.98.2-1.425-.15-.76-.672-1.468-.73-2.223-.222-2.91-.314-5.83-.474-8.746-.07-1.258-.188-2.514-.284-3.77-1.824 5.444-1.01 10.984-.636 16.095l-14.05 1.69c-1.117-8.642 1.876-16.63 3.43-24.88-.85 1.06-1.584 2.168-2.055 3.376-1.102 2.823-2.046 5.706-3.11 8.545-1.73 4.62-3.427 9.254-5.302 13.816-.748 1.82-1.935 3.46-2.922 5.18zm48.422 41.91l.016-.437 3.02-.407a8.568 8.568 0 0 0-.017-.274l-2.767-.546c2.036-.173 3.68-.314 5.322-.455l.044-.447c-2.318-.395-4.634-.79-6.95-1.187l.054-.256 5.094-.938c-1.714-.125-3.404-.13-5.063.088-1.117.148-1.51-.242-1.59-1.153l8.06-1.423-.096-.59c-2.215.155-4.43.312-6.643.468l-.007-.233c1.282-.278 2.564-.554 3.846-.83-1.776-.233-3.5-.17-5.204.05-1.417.184-2.082-.35-2.19-1.78l3.685-.79c-.02-.14-.04-.28-.058-.42h-4.278l-.03-.278 3.1-.736-.053-.312h-3.402l-.006-.21 2.472-.416c-3.384-.36-3.384-.36-3.84-1.194l5.486-.92c-2.144-.694-4.372.55-6.412-.357l.014-.55 2.047-.62c-.022-.108-.042-.218-.062-.326h-2.65l-.025-.307 1.835-.69c-1.406-.284-3.177.28-3.118-2.075l4.34-.907c-.024-.12-.05-.24-.076-.36l-4.974.356c-.02-.233-.043-.466-.064-.7l5.246-.73c-1.93-.79-4.092.433-5.926-.613l.037-.472 5.392-1.392-.11-.44-5.682.537-.044-.562c2.094-.37 4.19-.74 6.285-1.113l-.044-.377h-6.63l5.814-1.673-.04-.45h-5.87c0-.1.003-.2.005-.3 1.37-.22 2.743-.443 4.115-.665l-.054-.28h-4.194v-2.64h5.46c.006-.138.012-.276.016-.415l-5.066-.537.056-.484c2.206.155 4.412.31 6.62.467.01-.153.02-.305.032-.457l-6.704-.728c-.1-1.383.502-1.608 1.64-1.53 1.794.125 3.603.033 5.405.033 0-.105.003-.21.004-.317-2.185-.133-4.37-.266-6.71-.41l.598-1.33c2.487.148 4.886.29 7.286.435l.076-.846c-2.365-.25-4.73-.502-7.506-.797 2.19-1.856 4.452.048 6.803-1.15-1.888-.132-3.312-.286-4.737-.316-1.073-.022-1.235-.452-.88-1.334 1.606.148 3.142.29 4.677.43l.105-.684c-1.324-.346-2.652-.674-3.968-1.047-.45-.128-1.25-.378-1.245-.546.087-2.13-3.2-3.345-1.444-6.018.966-1.468 1.31-3.35 1.88-5.063.122-.37.17-.94-.03-1.21-1.103-1.484-2.2-2.994-3.48-4.323-1.66-1.727-3.487-3.294-5.244-4.93l-.328.272c.32.628.67 1.244.95 1.89.35.81.75 1.624.95 2.478.634 2.713 1.037 5.49 1.816 8.157.67 2.3 1.026 4.685 2.775 6.693 1.044 1.2 1.135 3.236 1.615 4.907.066.23-.058.534-.147.784-.415 1.158-.948 2.284-1.257 3.468-.63 2.424-1.74 4.924-1.56 7.31.242 3.176 1.123 6.455 2.44 9.367 3.088 6.827 6.574 13.476 9.954 20.17 1.22 2.412 2.596 4.746 3.9 7.116.147-.065.293-.13.44-.197l-1.584-4.638 3.16-.528-.046-.176-3.888-.63zM95.748 89.123c-.095-1.336-.96-1.144-1.82-1.08-1.652.122-3.39.536-4.945.18-1.88-.432-4.333.72-4.32 2.7.012 1.784.273 3.576.557 5.345.086.54.552 1.397.942 1.454 3.106.46 5.975 1.764 9.38 1.225 4.685-.743 8.464-2.414 11.042-6.445.21-.326.368-.918.21-1.18-.176-.29-.797-.553-1.13-.468-1.697.433-4.092-.173-4.3 2.68-.015.177-.25.374-.428.494-2.19 1.48-4.635 2.164-7.265 2.272l2.137-.58c-.713-.562-1.44-.77-2.184-.874-.684-.095-1.385-.077-2.08-.108 7.55-.624 7.55-.624 8.408-1.97h-6.644l7.484-1.937-.142-.637-6.51.884.356-1.585 1.254-.37zm16.214 29.357c1.41-.958 2.38-2.158 3.227-2.076 1.67.16 1.5-.507 1.373-1.598-.02-.172.71-.67.86-.587.86.467 1.652 1.064 2.466 1.618l.584-.217-.905-4.853h1.375l1.234 5.175.457-.095c-.186-2.1-.34-4.203-.592-6.294-.04-.333-.533-.61-.81-.906-1.363.98-1.448.95-2.077-.554h-3.794c-.632.47-1.206.94-1.824 1.347-.706.464-1.94.744-2.09 1.326-.538 2.055-.71 4.205-1.02 6.318l.47.094 1.38-3.86c.14.03.277.06.415.092l-.733 5.07zm-81.246 22.495c.134-.02.268-.04.402-.062.076-.296.23-.594.217-.887-.217-5.46-.436-10.92-.72-16.376-.02-.364-.554-.98-.865-.99-.535-.017-1.333.19-1.58.583-.854 1.345-1.516 2.813-2.078 3.898.497.806.87 1.22 1.025 1.705.29.903.4 1.862.676 2.77.953 3.127 1.946 6.24 2.923 9.36zm40.07 33.554l-2.232.232c.903 1.617 11.053 3.502 13.737 2.596l-2.564-1.07 1.29-.342-4.085-1.896c.045-.113.09-.225.133-.338 1.87.135 3.74.27 5.61.407-3.624-1.876-7.546-2.385-11.444-2.968-.245-.036-.556.37-.836.572.258.233.48.57.782.678.817.29 1.667.485 2.505.717-.033.12-.068.24-.1.362l-5.02-.41-.1.463 2.325.994zm2.62 9.168H65.09c-.01.22-.017.438-.025.656 4.404 1.143 8.958.73 13.425 1.205l.112-.504-3.58-1.036h8.944c.01-.135.02-.27.028-.404-4.193-.43-8.387-.86-12.58-1.287l-.03.41 2.023.958zm-46.015-39.55c.205-.15.41-.302.613-.453-2.352-3.68-4.033-7.58-4.26-12.002-.02-.385-.824-.73-1.263-1.095-.292.43-.887.912-.825 1.284.325 1.953.475 4.05 1.334 5.77 1.156 2.32 2.906 4.345 4.4 6.496zm30.562-13.637c4.9-5.157 6.493-11.667 9.67-17.836-1.97 1.697-9.11 14.966-9.67 17.837zm25.367 50.34c-4.812-1.682-9.8-2.11-14.927-2.28.993 1.68 10.85 3.21 14.926 2.28zm1.203 6.777c.015-.19.03-.378.043-.568-.324-.15-.64-.41-.974-.435a855.305 855.305 0 0 0-12.893-.927c-.266-.017-.558.377-.837.58.242.236.462.644.73.68 2.052.263 4.11.558 6.173.644 2.58.107 5.17.025 7.757.025zm-2.167-19.802c-2.573-1.667-9.69-2.496-11.547-1.25 3.923.455 7.45 2.805 11.546 1.25zm-9.217-4.274c3.792 1.345 7.3 1.633 10.86 1.562-2.428-1.734-8.986-2.817-10.86-1.56zm38.79-3.448l5.643 12.958.586-.264c-1.657-4.42-2.8-9.073-6.23-12.694zm16.81 26.383c-1.8-4.267-4.365-7.95-8.107-10.755l8.108 10.755zm-13.568-40.387c-2.65 2.945-7.616 3.406-8.286 8.152.39-.295.673-.683.923-1.09.898-1.47 1.83-2.828 3.586-3.49 1.64-.617 3.18-1.503 4.798-2.287l-1.022-1.285zm-32.057 14.93c-2.454-1.26-4.878-2.606-7.774-2.626 2.188 2.008 5 2.265 7.775 2.627zm-6.257-4.46l6.607 1.682c-1.773-2.272-5.882-3.242-6.607-1.683zm-4.73 11.384l-.162.808c2.77.53 5.54 1.06 8.31 1.588l.096-.476c-2.678-.984-5.366-1.923-8.244-1.92zm8.07 28.353l.1-.696c-3.31-.466-6.62-.93-9.932-1.394l-.082.587c3.304.5 6.61 1 9.915 1.502zm-4.004-34.14c2.276.4 4.235.747 6.195 1.094-1.96-1.948-4.76-2.424-6.196-1.096zm-64.668 34.248c1.73-1.297 2.037-2.676 1.05-3.466-.26-.206-1.342.105-1.34.164.02 1.01.153 2.016.29 3.303zm5.374-3.78c.133 1.027.16 1.747.34 2.426.112.414.462.765.704 1.145.34-.422.878-.806.97-1.276.112-.587-.143-1.244-.256-1.983l-1.758-.314zM126.822 73.305l-.14-.984c-1.788.237-3.575.47-5.36.707.032.282.065.564.1.845l5.4-.567zm-24.317 16.88l.04.51 4.352-.436c-1.92-1.548-2.822-1.493-4.392-.076zm-4.262 66.098l-.042.74 6.092.423c.014-.172.03-.343.043-.514l-6.092-.65zm-15.086-.233c-2.038-2.254-3.326-2.57-4.436-1.277l4.437 1.277zm-58.15 39.51c-.152-1.05-.27-1.89-.45-3.13l-1.93 2.598 2.38.532zM88.57 87.196l.368.688 2.24-.92c-.21-.297-.542-.876-.608-.847-.69.305-1.34.705-2 1.08zm9.754-2.37l-.16-.517c-.872.152-2.104-.51-2.466.8l.255.62 2.37-.903z"/><path d="M90.562 40.555c-4.835-1.743-9.847-2.59-14.955-2.987-.712-.055-1.396-.52-2.106-.562-3.713-.22-4.92-2.47-4.76-5.803.025-.49.322-1.198.706-1.398 1.793-.938 3.662-1.733 5.27-2.472-2.02-.156-4.358-.335-6.01 1.935-1.412-2.55-1.245-4.96.42-7.11.376-.487.768-.98 1.043-1.524 2.57-5.094 7.018-8.47 11.418-11.67 2.64-1.922 6.12-2.697 9.232-3.97 1.464-.6 2.945-1.158 4.342-1.888-12.175 1.192-20.684 7.87-27.134 17.92.222-.555.397-1.134.673-1.66 2.478-4.733 6.27-8.187 10.467-11.414C84.612 3.766 91.1 2.692 97.41.995c5.16-1.39 10.37-.88 15.553-.24 1.752.216 3.45.926 5.157 1.456 2.89.897 5.782 1.794 8.643 2.774.654.225 1.218.757 1.773 1.207 2.517 2.04 4.924 4.23 7.55 6.112 2.074 1.486 3.724 3.145 4.62 5.576 1.27 3.45 2.66 6.858 4 10.285-.11.1-.217.2-.324.3-.28-.21-.695-.36-.82-.64-.678-1.525-1.37-3.055-1.903-4.635-1.635-4.84-4.642-8.61-8.702-11.637-1.754-1.307-3.324-2.87-5.12-4.113-1.206-.835-2.62-1.422-4.012-1.93-4.05-1.474-8.047-3.31-12.236-4.143-4.383-.872-8.984-.976-13.308.938 2.894 0 5.79-.04 8.68.01 5.35.087 10.12 2.246 15.02 4.076 3.89 1.453 6.148 4.753 9.245 7.078 4.835 3.63 7.897 8.452 10.218 13.867.485 1.13.822 2.325 1.247 3.483a1828.47 1828.47 0 0 0 3.95 10.71c.16.435.44.826.875 1.617 1.008-5.41-1.606-9.51-3.24-13.88 1.964.33 4.11 7.04 4.14 12.946 1.206-1.29 2.252-2.412 3.474-3.722l2.098 3.077c-.852 0-1.395-.032-1.934.006-2.674.19-3.544 1.357-3.243 3.953.19 1.64.752 3.236 1.147 4.85.2.002.403.002.605.002 0-1.197-.003-2.396 0-3.594.002-.782-.107-1.59.062-2.337.103-.452.64-.806.98-1.203.372.36.92.652 1.084 1.09.85 2.254 1.6 4.548 2.39 6.823.102.29.253.56.38.84l.576-.153-2.227-9.56.2-.304c.363.408.94.763 1.057 1.23.785 3.2.873 6.725 2.323 9.565 2.52 4.94.89 10.13 1.874 15.1.078.39-.16.842-.512 1.204-.282-3.556-.515-7.117-.87-10.666-.147-1.45-.523-2.884-.908-4.294-.038-.14-.873-.06-1.545-.092l-2.58-1.653c0-1.502.04-3.275-.033-5.044-.016-.372-.452-.725-.695-1.088-.21.376-.613.76-.6 1.127.054 1.343.325 2.68.342 4.02.005.463-.49.932-.756 1.398-.488-.33-1.21-.558-1.415-1.016-.407-.907-.46-1.965-.785-2.917-.35-1.018-.037-2.417-1.876-2.62-.617-.07-1.064-1.477-1.625-2.245-2.876-3.932-5.76-7.86-8.66-11.774-.174-.236-.51-.352-.772-.524l-.367.295 8.125 11.712c-.068.086-.138.17-.207.256-.385-.144-.832-.207-1.145-.444-2.522-1.913-5.177-3.564-6.84-6.533-1.458-2.602-3.648-4.8-5.563-7.134-.35-.427-.935-.66-1.532-.85 2.804 5.827 7.816 10.173 9.71 16.637 1.827 6.242 3.243 12.513 4.462 18.83l-3.198 1.245-.897-1.138c.636-.17 1.117-.41 1.598-.407 1.708.004 1.838-.617 1.37-2.194-1.33-4.47-4.157-8.073-6.744-11.744-3.42-4.85-6.4-9.973-9.784-14.837-.103-.15-.35-.2-.77-.42l6.967 14.88c-1.13-.705-2.058-1.262-2.497-2.705-.465-1.524-1.995-2.776-3.198-4.013-3.483-3.58-7.9-5.678-12.417-7.588-.137-.058-.32-.008-.67-.008 5.243 3.71 10.35 7.324 15.454 10.938l-.395.562c-1.048-.742-2.087-1.496-3.143-2.223-3.538-2.435-7.413-4.085-11.465-5.536-4.088-1.465-7.922-3.642-11.862-5.517-.73-.348-1.437-.745-2.154-1.12l-.37.503c1.68 1.47 3.252 3.09 5.06 4.376 4.536 3.226 9.3 6.138 13.732 9.49 3.058 2.313 5.692 5.18 8.566 7.744 2.715 2.42 5.5 4.765 8.248 7.15.4.346.767.728 1.06 1.187L118.948 51.09l1.33.484c-1.138-2.454-22.965-16.212-26.16-16.39 2.36 1.662 4.48 3.157 6.598 4.65-4.333-.75-7.805-4.025-12.64-3.624l9.453 8.1c-.063.11-.124.22-.186.332l-5.993-3.856c.106.034.207.076.312.095.04.006.088-.04.132-.06-.135-.21-.223-.484-.41-.615a1173.33 1173.33 0 0 0-8.83-6.094c-.238-.162-.565-.192-.85-.284l-.218.387 9.076 6.342zm-13.72-9.305c-2.806-.63-5.652-1.42-7.863 1.093l7.86-1.093zm68.861 138.128c5.425.02 10.83-.104 16.122-1.746H146.72c.223-1.013.223-1.04 1.454-1.05 2.965-.016 5.932-.004 8.897-.004.004-.192.008-.383.01-.574l-9.287-.495-.157-.52c.59-.19 1.177-.543 1.77-.55 4.144-.05 8.29-.025 12.446-.336-4.234-1.613-8.633-1.186-13.23-1.074.932-1.49 1.74-2.442 3.585-2.204 1.846.238 3.747.052 5.624.052.01-.23.02-.462.028-.694l-7.382-.83-.174-.363c.426-.162.85-.457 1.278-.466 2.133-.042 4.27.07 6.4-.027 1.485-.068 2.958-.384 4.436-.59l-.016-.68-10.943-.503c.567-2.544.803-2.746 3.422-2.865 2.297-.107 4.593-.24 6.892-.306.377-.01.996.162 1.108.42 2.01 4.66 5.767 7.838 9.483 10.972 6.388 5.388 12.852 10.694 19.444 15.83 4.398 3.428 9.077 6.494 13.62 9.737 1.17.837 2.298 1.734 3.818 2.884-2.6.256-4.686.885-6.94.26-1.876-.52-3.67.025-5.33 1.096 1.69 1.42 1.548 2.18-.866 4.46-.276-.497-.53-.95-.927-1.668-.83.42-1.625 1.04-2.512 1.225-1.653.346-3.362.61-5.047.605-5.382-.01-10.763-.157-16.145-.26-1.04-.02-2.088 0-3.112-.144-.94-.13-1.855-.46-2.883-.728l2.177-.772-.17-.61-3.32.594.6 1.51-3.502-1.522H150.67l.984-.455c-5.31-.256-10.56 1.3-15.856.184 4.413.104 8.698-.498 12.8-2.35l-6.997.4c-.02-.194-.04-.387-.063-.58 1.416-.36 2.833-.718 4.334-1.1h-10.768l.015-.5c.375.034.755.038 1.124.103 3.118.55 5.75-1.213 8.63-1.814-2.614-.428-5.228-.854-7.842-1.28-.004-.103-.01-.206-.013-.31 2.946.13 5.89.26 8.837.388l.084-.692-7.923-1.578c.217-1.496.9-2.084 2.695-1.74 2.898.553 5.864.74 8.8 1.084l.15-.604-5.855-1.697 2.318-.414.07-.44c-1.943-.37-3.886-.737-5.83-1.107v-.186h10.602c-3.135-2.212-6.5-1.58-9.653-1.91l.014-.532h11.243l.01-.728h-10.75l-.02-.597 10.482-.69-.02-.457h-9.81a22.77 22.77 0 0 1-.152-.392c.476-.17.943-.454 1.43-.49 2.957-.21 5.92-.363 8.883-.536 0-.184 0-.37.002-.554h-9.062l-.105-.733c.47-.13.936-.35 1.412-.377 2.798-.157 5.6-.27 8.4-.4l.027-.45c-3.016-.23-6.032-.458-9.048-.686-.06-.132-.123-.263-.185-.395.54-.244 1.063-.643 1.623-.706 3.618-.412 7.245-.753 10.87-1.116l.01-.505c-3.615-.226-7.23-.453-10.847-.678-.005-.148-.01-.296-.013-.444m82.877 14.31c.32 1.26.627 2.525.97 3.78.31 1.137-.49 2.198-2.017 2.29l1.08-.693c-2.237-.198-2.417-1.415-1.876-3.088.466-1.434.805-2.908 1.25-4.554l.678.874c.363-8.916 4.462-16.44 8.28-24.08 2.67-5.345 5.14-10.79 7.562-15.9-.03-.272.018-.046.018.18 0 14.33.003 28.66-.028 42.993-.002.848-.283 1.696-.47 2.746 1.273.837-.01 2.498.387 3.662l-2.602.882 2.05.708c-.304 1.038-.466 2.15-.963 3.083-.337.633-1.085 1.154-1.768 1.442-.29.12-.885-.48-1.34-.752.03 1.67-1.198 1.73-2.838 1.323l.902-.685-1.342-1.706c.116-.1.232-.2.348-.302l.618.403.22-2.336 1.975.648c.272-1.19-.154-1.514-1.226-1.84-.99-.3-1.82-1.242-2.628-2-.37-.348-.52-.932-.794-1.46.555-.277 1.12-.56 1.684-.845l-.034-.52-2.726-.27c.494-1.744-1.282-1.342-1.8-1.21-2.404.614-2.765-.827-3-2.57-.01-.095-.12-.18-.186-.268l-.382.066m-84.06-70.649c-.24-.372-.62-.716-.7-1.12-.736-3.725-3.453-6.052-5.974-8.504-1.84-1.792-3.81-3.457-5.61-5.288-.754-.764-1.183-1.838-1.825-2.723-.55-.757-1.193-1.445-1.794-2.162l-.508.405c.73 1.116 1.46 2.233 2.193 3.357-.95.705-1.57.228-2.06-.572-.852-1.39-1.673-2.8-2.48-4.158 1.84-.68 4.217-.095 5.698 1.576 2.6 2.937 5.22 5.852 7.805 8.8 2.27 2.592 4.02 5.49 5.067 8.793.13.415.383.793.578 1.188l-.39.41M69.89 78.202c.245 1.64.454 3.29.75 4.92.128.706.403 1.392.676 2.06.22.536.536 1.032.498 1.74l-2.445-3.65c-.17.09-.34.182-.51.275.324.93.648 1.862.97 2.792l.033-.03c-2.823-2.196-4.13-5.303-4.965-8.615-.134-.534.68-1.305 1.556-2.062l2.018 7.283c.507-1.66.978-3.2 1.452-4.744l-.034.03m10.231-3.106c7.714-5.45 16.715-7.1 25.593-9.108l.28.867c-1.838.513-3.65 1.305-5.52 1.483-5.402.515-10.385 2.282-15.21 4.604-1.1.53-2.054 1.347-3.118 1.956-.572.327-1.234.495-1.855.736l-.17-.537m76.396 23.562c-.233 2.37-.39 4.753-.713 7.11-.557 4.054-1.065 8.124-1.894 12.124-.47 2.255-1.162 4.578-3.193 6.293 3.22-6.21 2.85-13.116 4.586-19.532.383-1.417.073-3.016.152-4.527.028-.56.256-1.108.393-1.662l.668.194"/><path d="M88.948 58.677l27.337-6.627c-8.836 2.79-17.526 6.197-27.337 6.627m29.668-4.337L94.41 62.116c1.996-1.515 20.892-8.026 24.206-7.776m-13.61 11.186c5.4-2.584 15.696-4.893 18.172-4.517-4.98 1.416-10.732 3.064-16.495 4.672-.387.11-.855-.07-1.677-.156m1.798 36.945c.08.718.24 1.438.22 2.153-.043 1.49-.198 2.975-.275 4.463-.113 2.188-.197 4.378-.63 6.557-1.295-1.42-.067-2.875-.238-4.286-.17-1.388.346-2.707-.186-4.216-.462-1.306.224-3.017.404-4.55l.704-.12m40.692-44.534l-1.368-10.115c.706.623 1.336.906 1.377 1.257.322 2.773.54 5.56.763 8.345.012.16-.206.335-.316.504l-.455.007m-35.966-8.799l-8.093 2.013c2.125-1.963 6.298-3.048 8.094-2.014m1.611-1.27l-11.5-7.052.23-.383c3.84 2.34 7.682 4.678 11.522 7.017l-.252.418M54.343 100.81c-.28-.132-.8-.263-.802-.4-.015-1.456 2.104-3.023 3.807-2.746l-.867 1.555-1.113-.74-1.076 2.38.053-.05m59.888-50.011c-2.248.674-4.496 1.346-6.71 2.007 1.658-1.55 5.458-2.698 6.71-2.007m33.077 79.247l-1.305-.582 2.242-3.572c.166.083.33.163.497.245-.495 1.292-.99 2.584-1.476 3.883.008.007.04.027.04.027m-13.678 64.802c1.97.16 3.94.32 5.91.478l-.008.234h-5.9c0-.238 0-.475-.002-.712m-9.08-92.21c1.426-1.814 2.857-1.898 3.97-.34l-3.97.34M98.323 50.226c-2.555.62-5.11 1.24-7.663 1.862-.04-.166-.077-.332-.115-.497 2.57-.56 5.137-1.12 7.706-1.682.025.106.05.21.073.318M64.927 70.01l-.426 4.606c-1.096-1.066-1.12-2.98.427-4.607M69.83 86.34l3.283 5.677-.535.274c-.906-1.992-1.81-3.986-2.715-5.98l-.032.03m73.913 28.929c1.968-.48 1.968-.48 1.412 2.045l-1.412-2.045m13.012-54.15c-1.25-1.19-1.235-1.73 0-3.387v3.386"/><path d="M244.478 114.96c-.004-.492-.394-1.195-.812-1.434a253.553 253.553 0 0 0-8.582-4.653c-5.245-2.72-11.022-3.784-16.663-5.267-1.477-.388-8.105-2.44-9.085-2.825-4.635-1.82-9.232-3.732-13.89-5.486-1.5-.565-3.153-.714-4.722-1.108-3.667-.92-6.703-3.046-9.74-5.164-1.545-1.078-3.26-2.465-4.656-3.202-1.572-.83-3.666-1.66-4.812-2.43-4.12-2.72-4.83-7.87-7.916-11.325.634.402 1.197.854 1.715 1.34a37.73 37.73 0 0 1-.877-2.654c-1.97-.827-3.23-1.27-3.57-1.23-.447 2.175-1.517 3.125-3.55 3.12l.785-1.89c-.686.552-1.132.936-1.604 1.283-.703.517-1.446 1.044-2.18.076-.666-.88-.798-1.865.25-2.477 2.976-1.737 2.524-4.572 2.447-7.29-.01-.288-.37-.567-.567-.852-.155.337-.383.657-.452 1.01-.262 1.33.106 2.824-1.08 3.947-.093-2.86.066-5.686.192-8.514.138-3.064-1.855-4.824-4.88-4.404.08 1.396.22 2.786.218 4.176 0 1.413-.143 2.827-.224 4.24l.287.04c.21-1.662.418-3.322.68-5.41 1.874 2.325 2.416 9.567 1.19 11.955l-.873-3.378c-.275.65-.206 1.23-.07 1.79.896 3.692 2.173 7.335 2.63 11.077.728 5.944.904 11.955 1.336 17.937.046.63.252 1.25.384 1.873.157-.04.314-.077.47-.116-.06-.183-.217-.484-.16-.53 1.54-1.297 1.033-3.037 1.022-4.66-.01-1.4-.088-2.802-.103-4.203-.013-1.15.548-1.398 1.635-1.13 1.878.462 3.79.792 5.717 1.184.187.98.704 2.13.56 3.194a619.016 619.016 0 0 1-2.834 18.978c-.36 2.17-1.104 4.276-1.673 6.413l.454.36c.334-.328.82-.6.972-.997.358-.936.538-1.94.83-2.906 1.242-4.13 2.517-8.225 2.43-12.646-.045-2.386.473-4.787.77-7.178.215-1.724.69-3.44.694-5.16.017-5.64-1.673-10.582-7.503-13.05-.374-.16-.713-.402-1.07-.605 2.265-.22 4.437.216 5.692 2.01 3.07 4.387 4.463 9.518 4.562 14.74.125 6.6-.43 13.222-.877 19.822-.114 1.677-1.09 3.282-1.37 4.97-.175 1.06-1.697 2.336.245 3.32-1.894.44-2.767 2.624-2.086 4.235l-1.76 2.207 2.545.323c-.016.09-.034.182-.052.273l-2.876.548.09.565h2.742c-1.01 1.064-2.78-.036-3.573 1.68 1.577.093 2.887.17 4.196.25-.943.533-1.902.713-2.87.802-1.83.17-1.833.147-1.946 1.315l3.985.388c-.004.09-.01.178-.013.267-1.618.21-3.235.42-4.853.628l.078.54h7.257l.05.512-8.236 1.295c0 .096.004.19.007.286h6.664l.022.506-6.983.63.008.175 6.97.476c.004.184.01.367.013.55-2.408.25-4.817.5-7.227.752l.014.152h9.204c-3.152.703-6.325 1.025-9.49 1.408-.44.053-.843.407-1.264.62l.195.535h11.19c-3.888 1.893-8.133 1.336-12.193 2.078 3.904.202 7.8-.114 11.56 1.267-.8.258-1.607.43-2.42.465-2.97.125-5.945.228-8.918.285-.89.017-1.56.11-1.418 1.345 4.258-.317 8.502-1.428 12.705.45-2.59.266-5.18.53-7.598.78l5.327 1.11c-.42.457-.787.55-1.155.548-3.028-.01-6.055-.056-9.083-.047-.523.002-1.046.212-1.568.327l.108.534c2.475.28 4.95.564 7.425.846l-.005.402h-7.5l-.032.47c.233.073.464.2.7.212 2.744.122 5.493.168 8.23.374.693.05 1.503.436 2 .93 4.526 4.51 8.958 9.117 13.5 13.613 1.706 1.688 3.204 3.698 5.7 4.41.737.212 1.543.437 2.128.896 4.312 3.382 8.6 6.796 12.845 10.26 3.343 2.723 6.587 5.57 9.954 8.265.515.41 1.757.653 2.146.338.936-.76 1.53-.542 2.268.11.96.85 2.033 1.23 3.515.73l-1.12-1.19c2.184-.742 3.263 1.24 4.876 1.59l-1.596-.165-.156.505c1.084.436 2.144.963 3.26 1.286 1.817.528 1.827.473 1.533-1.362-.04-.262-.1-.646.04-.795 1.527-1.63 1.14-3.777 1.574-5.695 1.21-5.344 2.646-10.655 3.49-16.057.57-3.66 1.334-7.11 3.273-10.303 1.01-1.665 1.576-3.602 2.583-5.272 1.743-2.888 3.965-5.52 5.444-8.524 1.6-3.248 2.59-6.8 3.82-10.226.376-1.044.943-2.112.96-3.177.097-6.068.074-12.138.024-18.207zm-58.432-21.5c1.177 1.376 2.54 2.636 3.493 4.154 1.807 2.884 3.168 5.924 3.912 9.36 1.823 8.417 3.082 16.862 3.5 25.477.117 2.383 1.496 4.785 2.607 7.022 3 6.04 4.016 12.438 3.974 19.095-.014 2.18.184 4.362.286 6.542-.178.03-.356.06-.534.092-.125-.762-.268-1.522-.37-2.288-1-7.407-.998-15.04-4.282-21.963-2.984-6.286-3.404-13.116-4.632-19.777-.926-5.02-1.548-10.1-2.555-15.102-.84-4.163-2.76-7.927-5.17-11.428-.204-.298-.365-.626-.547-.94.106-.08.21-.162.316-.243zm-10.744-7.04c2.863 2.895 5.498 6.165 6.376 10.097 1.538 6.885 2.38 13.926 3.502 20.905.06.374.007.766-.21 1.194-.673-2.566-1.403-5.118-2.004-7.7-.89-3.82-1.795-7.644-2.494-11.502-.682-3.763-2.88-6.785-4.514-10.088-.434-.876-.764-1.805-1.14-2.71.16-.066.323-.13.484-.197zm-5.902 1.4l2.85 5.69.276.014-1.19-9.037c2.944 3.04 4.04 12.152.532 16.815.092-1.22.265-2.438.247-3.655a6.845 6.845 0 0 0-.486-2.37c-.94-2.38-1.97-4.725-2.965-7.083l.735-.375zm27.56 78.294c-2.835-1.18-5.713-2.26-8.544-3.45-.697-.292-1.298-.827-1.923-1.28-1.223-.886-2.33-2.344-3.665-2.59-4.26-.78-7.686-3.57-11.83-4.512-2.284-.52-4.583-.98-6.875-1.464-.347-.073-.696-.136-1.04-.41 1.807-.977 3.798-.73 5.603-.415 2.898.504 5.69 1.595 8.572 2.224 5.375 1.172 9.65 4.574 14.456 6.89 3.687 1.777 7.408 3.48 11.11 5.23.566.27 1.1.607 2.068 1.145-3.15.39-5.55-.38-7.93-1.37z"/></svg>